<svg width="504" height="188" viewBox="0 0 504 188" fill="none" xmlns="http://www.w3.org/2000/svg">
<rect width="504" height="188" fill="#E5E5E5"/>
<g id="undraw_code_typing_re_p8b9 1" clip-path="url(#clip0_0_1)">
<path id="Vector" d="M306.524 95.8804L336.027 69.18L306.524 42.4796L315.519 34.3416L354.017 69.18L315.519 104.018L306.524 95.8804Z" fill="#E6E6E6"/>
<path id="dot-3" d="M234.265 58.4684H222.272V69.3554H234.265V58.4684Z" fill="#E6E6E6"/>
<path id="dot-2" d="M282.478 58.4684H270.484V69.3554H282.478V58.4684Z" fill="#E6E6E6"/>
<path id="dot-1" d="M258.371 58.4684H246.378V69.3554H258.371V58.4684Z" fill="#E6E6E6"/>
<path id="Vector_2" d="M206.022 95.6084L176.489 68.908L205.992 42.2076L196.997 34.0695L158.529 68.908L197.027 103.746L206.022 95.6084Z" fill="#E6E6E6"/>
<path id="tag-2" d="M306.524 90.7093L336.027 64.0089L306.524 37.3081L315.519 29.17L354.017 64.0089L315.519 98.8473L306.524 90.7093Z" fill="#6C63FF"/>
<path id="dots" d="M222.272 65.9139H234.265V55.0268H222.272L222.272 65.9139ZM282.478 55.0268H270.484V65.9139H282.478V55.0268ZM246.378 65.9139H258.371V55.0268H246.378V65.9139Z" fill="#6C63FF"/>
<path id="tag-1" d="M206.022 90.4369L176.489 63.7365L205.992 37.0361L196.997 28.898L158.529 63.7365L197.027 98.5749L206.022 90.4369Z" fill="#6C63FF"/>
<path id="Vector_3" d="M61.5971 177.493L68.3111 178.967L77.7666 156.16L67.8576 153.986L61.5971 177.493Z" fill="#A0616A"/>
<path id="Vector_4" d="M58.4183 182.966L60.48 175.225L73.6157 178.107C75.8262 178.595 77.7335 179.858 78.9191 181.621C80.1047 183.383 80.4716 185.501 79.9395 187.509L79.8941 187.679L58.4183 182.966Z" fill="#2F2E41"/>
<path id="Vector_5" d="M91.3183 181.645L98.2257 181.645L101.511 157.46L91.3174 157.46L91.3183 181.645Z" fill="#A0616A"/>
<path id="Vector_6" d="M89.645 179.678L103.159 179.678H103.159C105.435 179.678 107.617 180.498 109.227 181.959C110.836 183.42 111.74 185.401 111.74 187.467V187.642L89.6454 187.643L89.645 179.678Z" fill="#2F2E41"/>
<path id="Vector_7" d="M89.6975 173.276L90.8331 135.651L89.3034 120.394L86.3186 132.136L73.2759 170.746L62.032 168.06L75.054 126.429L72.2257 99.7266L80.3515 94.9848L80.4611 95.0028L108.223 99.6482L101.517 172.204L89.6975 173.276Z" fill="#2F2E41"/>
<path id="Vector_8" d="M100.685 104.886C98.4493 104.886 95.8346 104.233 92.9241 102.368C83.6106 96.4008 72.5056 102.82 72.3943 102.885L71.9434 103.151L71.9592 102.663C71.9705 102.315 73.0859 67.7602 73.0859 56.6409C73.0859 45.153 81.3424 36.7653 83.873 34.4683C86.3567 32.2133 88.4466 32.2632 91.0922 32.3256C91.5481 32.3361 92.0233 32.3476 92.5231 32.3476C95.9804 32.3476 99.3417 35.3628 99.4831 35.4911L99.5506 35.5526L99.5631 35.6385L109.157 101.209L109.083 101.294C109.039 101.345 105.888 104.886 100.685 104.886Z" fill="#CCCCCC"/>
<path id="Vector_9" d="M106.133 21.9403C109.799 15.853 107.335 8.22065 100.629 4.89301C93.9231 1.56538 85.5154 3.80255 81.8496 9.88988C78.1839 15.9772 80.6484 23.6096 87.3542 26.9372C94.06 30.2649 102.468 28.0277 106.133 21.9403Z" fill="#A0616A"/>
<path id="Vector_10" d="M115.175 115.386C114.52 114.925 113.984 114.34 113.606 113.671C113.227 113.002 113.015 112.266 112.984 111.515C112.952 110.764 113.103 110.015 113.425 109.323C113.746 108.63 114.232 108.009 114.846 107.505L106.988 90.6787L117.277 92.3978L123.162 108.113C124.026 109.106 124.46 110.353 124.38 111.616C124.299 112.88 123.711 114.073 122.727 114.97C121.742 115.866 120.43 116.404 119.038 116.48C117.646 116.557 116.271 116.167 115.175 115.386V115.386Z" fill="#A0616A"/>
<path id="Vector_11" d="M112.949 105.807L98.7493 79.5123L92.5231 59.7216L92.5281 42.5289C92.5421 42.461 94.0058 35.7734 99.4308 36.2358C104.35 36.6684 107 38.852 108.29 43.5373C109.386 47.5175 107.887 59.3255 107.742 60.4398C108.694 62.4885 122.974 93.3761 120.61 97.0955C120.522 97.2404 120.393 97.3617 120.236 97.4471L122.767 102.297L112.949 105.807Z" fill="#CCCCCC"/>
<path id="Vector_12" d="M92.2222 20.6476C93.881 20.8435 95.1323 19.3029 95.7126 17.8787C96.293 16.4545 96.7351 14.7965 98.1773 14.0272C100.148 12.9761 102.669 14.2402 104.922 13.8935C107.466 13.5019 109.121 11.0538 109.251 8.71395C109.38 6.37406 108.354 4.12358 107.348 1.96622L106.997 4.64733C107.044 3.73864 106.833 2.8342 106.385 2.02053C105.937 1.20686 105.266 0.511165 104.437 0L104.89 3.9341C104.794 3.39133 104.58 2.87119 104.262 2.40351C103.943 1.93583 103.526 1.52983 103.035 1.20881C102.543 0.887796 101.986 0.658083 101.397 0.532852C100.807 0.407622 100.196 0.389341 99.5983 0.479062L99.6696 2.82315C96.7307 2.50591 93.766 2.18822 90.8183 2.42991C87.8707 2.6716 84.9024 3.51821 82.6683 5.28044C79.3265 7.91647 78.106 12.257 78.5157 16.2587C78.9255 20.2603 80.7452 24.0196 82.6417 27.651C83.1189 28.5647 83.7789 29.5958 84.8854 29.7121C85.8796 29.8167 86.7893 29.0623 87.0983 28.1982C87.3365 27.3115 87.3273 26.3849 87.0715 25.5023C86.7919 24.1535 86.4394 22.7749 86.7023 21.4233C86.9652 20.0717 88.0363 18.7361 89.5372 18.5705C91.0381 18.4048 92.5738 19.9622 91.8523 21.1683L92.2222 20.6476Z" fill="#2F2E41"/>
<path id="Vector_13" d="M434.732 113.711C434.27 113.233 433.929 112.669 433.733 112.058C433.537 111.448 433.492 110.806 433.599 110.178C433.706 109.549 433.963 108.95 434.353 108.422C434.743 107.894 435.256 107.45 435.855 107.121L432.314 92.0061L440.55 94.9356L442.65 108.84C443.192 109.791 443.331 110.889 443.04 111.926C442.75 112.963 442.05 113.868 441.074 114.468C440.098 115.069 438.913 115.323 437.744 115.183C436.575 115.044 435.503 114.52 434.732 113.711V113.711Z" fill="#FFB8B8"/>
<path id="Vector_14" d="M433.796 101.917L433.752 101.769C429.299 86.8188 424.697 71.3647 419.078 54.5381L419.041 54.4278L419.165 54.3622C422.297 52.7031 427.004 52.8136 430.115 54.6189C431.523 55.4421 432.618 56.6383 433.252 58.0453C433.887 59.4524 434.029 61.0025 433.661 62.4855L437.759 81.8835C439.425 88.2243 441.15 94.7876 442.798 101.259L442.844 101.443L442.589 101.457C439.588 101.631 436.488 101.81 434.004 101.909L433.796 101.917Z" fill="#CCCCCC"/>
<path id="Vector_15" d="M395.956 182.378H390.116L387.337 161.929H395.956V182.378Z" fill="#FFB8B8"/>
<path id="Vector_16" d="M397.446 187.517H378.615V187.301C378.617 185.537 379.39 183.845 380.764 182.598C382.138 181.351 384.001 180.649 385.945 180.647H397.446L397.446 187.517Z" fill="#2F2E41"/>
<path id="Vector_17" d="M450.989 178.004L445.424 179.614L435.937 160.896L444.15 158.521L450.989 178.004Z" fill="#FFB8B8"/>
<path id="Vector_18" d="M436.185 187.68L436.112 187.474C435.524 185.793 435.695 183.968 436.587 182.401C437.479 180.834 439.02 179.652 440.871 179.114L451.829 175.945L454.127 182.49L436.185 187.68Z" fill="#2F2E41"/>
<path id="Vector_19" d="M421.429 40.8382C427.891 40.8382 433.129 36.083 433.129 30.2171C433.129 24.3512 427.891 19.596 421.429 19.596C414.968 19.596 409.729 24.3512 409.729 30.2171C409.729 36.083 414.968 40.8382 421.429 40.8382Z" fill="#FFB8B8"/>
<path id="Vector_20" d="M426.682 28.2486C426.749 23.9648 424.774 19.7222 421.72 17.5891C420.281 16.554 418.491 16.0043 416.655 16.0338C414.819 16.0632 413.051 16.67 411.654 17.7506C408.647 19.9809 406.765 24.2854 406.924 28.5656C413.66 28.583 420.396 28.6004 426.682 28.2486Z" fill="#2F2E41"/>
<path id="Vector_21" d="M399.291 175.795L399.056 175.775C393.976 175.322 388.722 174.855 383.756 174.801L383.486 174.798L383.523 174.555C384.7 166.821 385.198 158.78 385.681 151.004C386.157 143.326 386.649 135.386 387.796 127.845C388.281 125.826 388.754 123.831 389.225 121.843C393.125 105.392 396.808 89.8528 404.411 74.4711L404.482 74.3259L404.657 74.3449C411.79 75.1285 418.644 77.491 423.957 80.9972L424.06 81.065L424.055 81.1805C423.952 83.5696 423.846 86.0395 424.003 88.2893C426.414 91.3306 428.012 94.8399 428.67 98.5391C429.327 102.238 429.027 106.026 427.792 109.601C429.884 115.947 432.047 122.507 434.253 128.978C439.612 142.314 445.157 156.115 450.84 170.104L450.934 170.333L450.671 170.389C446.582 171.26 442.363 172.159 438.202 172.508L438.045 172.521L437.97 172.395C427.357 154.466 418.726 135.627 412.204 116.154C410.783 120.085 408.737 123.634 406.755 127.072C404.86 130.199 403.192 133.435 401.762 136.76C400.885 143.299 400.652 150.383 400.427 157.234C400.214 163.712 400.013 169.83 399.316 175.583L399.291 175.795Z" fill="#2F2E41"/>
<path id="Vector_22" d="M417.435 17.7856C422.506 16.7937 428.116 17.7373 432.099 20.8435C436.082 23.9496 438.104 29.3232 436.468 33.9317C434.832 38.5402 429.277 41.7827 424.254 40.5926C425.693 36.9115 424.074 32.3921 420.556 30.2718C416.385 27.7572 415.237 21.754 417.435 17.7856Z" fill="#2F2E41"/>
<path id="Vector_23" d="M423.592 81.459L423.407 81.3823C416.937 78.7028 410.593 76.6469 404.649 74.771L404.467 74.7353L404.467 74.2556L404.585 74.293C404.61 74.2431 404.638 74.1865 404.666 74.1302C404.747 73.9671 404.802 73.8561 404.849 73.7826L404.848 73.782C405.344 72.8654 405.738 71.9796 406.119 71.1229C406.512 70.2389 406.917 69.3261 407.442 68.3603C406.171 67.2033 405.301 65.7339 404.939 64.1334C404.577 62.5329 404.739 60.8712 405.405 59.3532C406.718 56.5282 410.065 54.328 413.583 53.9629C414.872 50.7418 417.744 43.9736 417.744 43.9736C417.744 43.9736 423.784 43.823 426.213 43.5433L426.253 43.5386L426.293 43.5466C431.596 44.6014 436.023 49.1561 437.058 54.623C437.933 59.2371 436.605 64.5148 433.32 69.484C431.635 71.9141 429.771 74.2385 427.742 76.4414C426.263 78.1209 424.865 79.7071 423.704 81.3046L423.592 81.459Z" fill="#CCCCCC"/>
<path id="Vector_24" d="M435.303 24.0795C431.753 23.5985 428.965 20.3042 429.369 17.0664C429.773 13.8286 433.3 11.1829 436.879 11.434C440.458 11.6852 443.496 14.7916 443.346 18.0473C443.197 21.3029 439.836 24.6938 435.303 24.0795Z" fill="#2F2E41"/>
<path id="Vector_25" d="M434.749 21.9801C431.199 21.4991 428.411 18.2047 428.815 14.967C428.991 13.8657 429.471 12.8228 430.211 11.9355C430.951 11.0482 431.926 10.3454 433.046 9.89259C430.183 10.4614 427.719 12.7261 427.386 15.3994C426.982 18.6372 429.77 21.9315 433.32 22.4126C434.643 22.601 435.997 22.429 437.212 21.9183C436.402 22.0728 435.567 22.0937 434.749 21.9801V21.9801Z" fill="#2F2E41"/>
<path id="Vector_26" d="M365.885 79.0522C366.228 78.4977 366.7 78.0181 367.269 77.6472C367.838 77.2763 368.489 77.0231 369.177 76.9054C369.865 76.7878 370.574 76.8086 371.252 76.9663C371.931 77.124 372.563 77.4149 373.104 77.8183L387.623 69.7512L387.325 77.7768L373.583 84.2071C372.776 84.9875 371.681 85.4721 370.507 85.5691C369.333 85.6661 368.16 85.3686 367.212 84.7332C366.263 84.0978 365.604 83.1686 365.359 82.1215C365.115 81.0744 365.302 79.9824 365.885 79.0522V79.0522Z" fill="#FFB8B8"/>
<path id="Vector_27" d="M377.823 74.3222L377.962 74.2349C392.007 65.4429 406.524 56.3545 422.129 45.9387L422.231 45.8704L422.341 45.9546C425.108 48.0825 426.561 52.1485 425.723 55.4122C425.337 56.8916 424.459 58.2276 423.209 59.2393C421.959 60.2509 420.397 60.8894 418.733 61.0682L399.951 71.0391C393.92 74.5779 387.678 78.2406 381.505 81.8075L381.33 81.9086L381.23 81.6951C380.05 79.1844 378.831 76.5905 377.901 74.4976L377.823 74.3222Z" fill="#CCCCCC"/>
<path id="Vector_28" d="M181.974 188H0.476371C0.350029 188 0.228862 187.954 0.139525 187.873C0.0501885 187.792 0 187.682 0 187.568C0 187.453 0.0501885 187.343 0.139525 187.262C0.228862 187.181 0.350029 187.135 0.476371 187.135H181.974C182.1 187.135 182.221 187.181 182.31 187.262C182.4 187.343 182.45 187.453 182.45 187.568C182.45 187.682 182.4 187.792 182.31 187.873C182.221 187.954 182.1 188 181.974 188Z" fill="#3F3D56"/>
<path id="Vector_29" d="M503.524 188H322.026C321.9 188 321.779 187.954 321.69 187.873C321.6 187.792 321.55 187.682 321.55 187.568C321.55 187.453 321.6 187.343 321.69 187.262C321.779 187.181 321.9 187.135 322.026 187.135H503.524C503.65 187.135 503.771 187.181 503.86 187.262C503.95 187.343 504 187.453 504 187.568C504 187.682 503.95 187.792 503.86 187.873C503.771 187.954 503.65 188 503.524 188Z" fill="#3F3D56"/>
</g>
<defs>
<clipPath id="clip0_0_1">
<rect width="504" height="188" fill="white"/>
</clipPath>
</defs>
</svg>
